<?xml version="1.0" encoding="UTF-8" standalone="no"?>
<svg
   version="1.1"
   width="1024"
   height="1024"
   id="svg22"
   xmlns="http://www.w3.org/2000/svg"
   xmlns:svg="http://www.w3.org/2000/svg">
  <defs
     id="defs22" />
  <path
     d="m 486.79883,91.870605 c 0.71055,-0.0018 1.4211,-0.0035 2.15318,-0.0053 2.35977,-0.0044 4.71947,-0.0015 7.07924,0.0019 1.63285,-6.73e-4 3.26571,-0.0016 4.89856,-0.0029 3.42657,-0.0015 6.8531,6.77e-4 10.27966,0.0053 4.40208,0.0057 8.80409,0.0024 13.20616,-0.0036 3.37305,-0.0036 6.74609,-0.0025 10.11915,1.28e-4 1.62358,6.69e-4 3.24717,-1.59e-4 4.87075,-0.0025 2.26525,-0.0025 4.5304,0.0013 6.79564,0.0069 1.9374,0.0012 1.9374,0.0012 3.91394,0.0024 C 553,92 553,92 554,93 c 1.89994,0.216469 3.80695,0.371438 5.71485,0.5 1.1608,0.0825 2.3216,0.164999 3.51757,0.25 1.22268,0.0825 2.44535,0.164999 3.70508,0.25 2.40521,0.162806 4.81018,0.329286 7.21485,0.5 1.07242,0.07219 2.14483,0.144374 3.24975,0.21875 C 580,95 580,95 582,96 c 2.33078,0.307918 4.66242,0.508952 7.00391,0.71875 C 591,97 591,97 592,98 c 2.50065,0.373928 4.98994,0.70524 7.5,1 7.36487,0.864864 7.36487,0.864864 8.5,2 2.32818,0.36761 4.66184,0.70242 7,1 0,0.66 0,1.32 0,2 0.79664,0.049 1.59328,0.098 2.41406,0.14844 5.52901,0.39012 10.38026,0.85789 15.58594,2.85156 3.65585,1.04016 7.32765,2.01984 11,3 0,0.66 0,1.32 0,2 1.27875,0.0825 2.5575,0.165 3.875,0.25 4.67922,0.50266 8.57164,1.93274 12.86328,3.8125 2.08077,0.86249 4.06589,1.45512 6.26172,1.9375 0,0.66 0,1.32 0,2 0.9075,0.0619 1.815,0.12375 2.75,0.1875 5.75767,0.78352 10.98615,3.47013 16.25,5.8125 0,0.66 0,1.32 0,2 1.32,0 2.64,0 4,0 0,0.66 0,1.32 0,2 0.95778,0.0644 1.91555,0.12891 2.90235,0.19531 5.08944,0.72981 9.2162,3.21509 13.66015,5.67969 1.64692,0.89364 3.29405,1.78687 4.94141,2.67969 0.76973,0.4212 1.53946,0.8424 2.33252,1.27636 2.69189,1.45439 5.41566,2.82394 8.16357,4.16895 0,0.66 0,1.32 0,2 0.76313,0.12375 1.52625,0.2475 2.3125,0.375 C 727,147 727,147 730,149 c 0,0.66 0,1.32 0,2 0.76313,0.12375 1.52625,0.2475 2.3125,0.375 C 735,152 735,152 738,154 c 0,0.66 0,1.32 0,2 2.475,0.495 2.475,0.495 5,1 0,0.66 0,1.32 0,2 0.86625,0.18563 0.86625,0.18563 1.75,0.375 2.27336,0.63149 4.17535,1.51358 6.25,2.625 0,0.66 0,1.32 0,2 0.78375,0.30937 1.5675,0.61875 2.375,0.9375 C 756,166 756,166 758,167 c 0,0.66 0,1.32 0,2 0.78375,0.10312 1.5675,0.20625 2.375,0.3125 C 763,170 763,170 765,173 c 2.05004,1.19233 2.05004,1.19233 4,2 0,0.66 0,1.32 0,2 0.72188,0.2475 1.44375,0.495 2.1875,0.75 3.08857,1.37269 5.32262,2.97353 7.8125,5.25 0,0.66 0,1.32 0,2 0.99,0 1.98,0 3,0 0,0.66 0,1.32 0,2 0.59813,0.10312 1.19625,0.20625 1.8125,0.3125 2.50008,0.78574 3.56285,1.65669 5.1875,3.6875 0,0.66 0,1.31999 0,2 0.66,0 1.32,0 2,0 0,0.65999 0,1.31999 0,2 1.32,0.32999 2.64,0.65999 4,1 0,0.65999 0,1.31999 0,2 0.66,0 1.32,0 2,0 0,0.65999 0,1.31999 0,2 0.99,0.32999 1.98,0.65999 3,1 0,0.65999 0,1.31999 0,2 0.95906,0.40218 0.95906,0.40218 1.9375,0.8125 C 804,205 804,205 805,208 c 0.99,0.32999 1.98,0.65999 3,1 0,0.65999 0,1.31999 0,2 0.66,0 1.32,0 2,0 0,0.65999 0,1.31999 0,2 0.99,0.32999 1.98,0.65999 3,1 0,0.65999 0,1.31999 0,2 0.95906,0.40218 0.95906,0.40218 1.9375,0.8125 C 817,218 817,218 818,221 c 0.99,0.32999 1.98,0.65999 3,1 0,0.65999 0,1.31999 0,2 0.66,0 1.32,0 2,0 0,0.65999 0,1.31999 0,2 0.99,0.32999 1.98,0.65999 3,1 0,0.65999 0,1.31999 0,2 0.66,0 1.32,0 2,0 3,3.46154 3,3.46154 3,6 0.66,0 1.32,0 2,0 0.33,1.31999 0.66,2.63999 1,4 1.32,0.32999 2.64,0.65999 4,1 0.33,1.31999 0.66,2.63999 1,4 0.66,0 1.32,0 2,0 0,0.99 0,1.97999 0,3 0.99,0.32999 1.98,0.65999 3,1 0,0.65999 0,1.31999 0,2 0.66,0 1.32,0 2,0 0.12375,1.17563 0.12375,1.17563 0.25,2.375 0.2475,0.86624 0.495,1.73249 0.75,2.625 1.31647,0.69937 2.65022,1.3673 4,2 0.75,2.125 0.75,2.125 1,4 0.66,0 1.32,0 2,0 3,4.38461 3,4.38461 3,7 0.66,0 1.32,0 2,0 0.12375,1.17563 0.12375,1.17563 0.25,2.375 0.4585,2.76966 0.4585,2.76966 2.75,3.75 0.66,0.28874 1.32,0.57749 2,0.875 0.33,0.99 0.66,1.97999 1,3 0.66,0.32999 1.32,0.65999 2,1 0,1.31999 0,2.63999 0,4 0.99,0.32999 1.98,0.65999 3,1 0,0.99 0,1.97999 0,3 0.66,0 1.32,0 2,0 0.33,1.64999 0.66,3.3 1,5 0.66,0 1.32,0 2,0 0,1.31999 0,2.63999 0,4 0.66,0 1.32,0 2,0 2.0417,2.90548 3,4.40141 3,8 0.66,0 1.32,0 2,0 1.2086,2.41719 2.41662,4.83465 3.6211,7.2539 0.8545,1.70174 1.71967,3.39823 2.60156,5.08594 C 891,321.68548 891,321.68548 891,324.99999 c 0.66,0 1.32,0 2,0 3,6.5 3,6.5 3,11 0.66,0 1.32,0 2,0 5.55581,11.33713 5.55581,11.33713 6,18 0.66,0 1.32,0 2,0 0,1.65 0,3.3 0,5 0.66,0 1.32,0 2,0 0.26555,0.88043 0.5311,1.76086 0.80469,2.66797 0.3532,1.16145 0.70641,2.32289 1.07031,3.51953 0.34805,1.14856 0.6961,2.29711 1.05469,3.48047 1.00091,3.26365 1.00091,3.26365 2.19531,6.08203 0.99286,2.55307 1.03018,4.53434 0.875,7.25 0.66,0 1.32,0 2,0 0.33,3.63 0.66,7.26 1,11 0.66,0 1.32,0 2,0 0.50905,1.87257 1.00683,3.7482 1.5,5.625 0.41766,1.56622 0.41766,1.56622 0.84375,3.16407 0.64744,3.16781 0.77238,5.98835 0.65625,9.21093 0.66,0 1.32,0 2,0 0.12375,1.17563 0.2475,2.35125 0.375,3.5625 0.34171,2.78251 0.83478,5.1586 1.625,7.875 1.01742,3.62457 1.44355,7.00519 1.75391,10.74219 0.0612,1.83741 0.0612,1.83741 1.24609,2.82031 1.03582,7.02056 1.10793,13.91293 1,21 0.66,0 1.32,0 2,0 0.86554,10.80108 1.14903,21.51236 1.13281,32.34375 6.8e-4,1.62415 0.002,3.2483 0.003,4.87244 10e-4,3.37831 -6.2e-4,6.75659 -0.005,10.13489 -0.006,4.28595 -0.002,8.57183 0.004,12.85778 0.004,3.34614 0.002,6.69227 -1.3e-4,10.03841 -6.6e-4,1.57853 1.1e-4,3.15705 0.002,4.73557 0.0118,10.05185 -0.33315,19.99474 -1.1363,30.01716 -0.66,0 -1.32,0 -2,0 0.0116,0.76184 0.0232,1.52368 0.0352,2.3086 0.0553,6.32499 -0.11129,12.42963 -1.03516,18.6914 -0.33,0.33 -0.66,0.66 -1,1 -0.37393,2.50065 -0.70524,4.98994 -1,7.5 -0.86486,7.36487 -0.86486,7.36487 -2,8.5 -0.14437,1.03125 -0.28875,2.0625 -0.4375,3.125 -0.55158,3.79982 -1.47651,7.19472 -2.5625,10.875 -1.02363,3.99418 -2.01389,7.99642 -3,12 -0.66,0 -1.32,0 -2,0 -0.33,3.63 -0.66,7.26 -1,11 -0.66,0 -1.32,0 -2,0 -0.0619,1.03125 -0.12375,2.0625 -0.1875,3.125 -1.11231,8.94618 -5.09186,17.58548 -8.83984,25.71875 -1.80103,3.99264 -3.36725,8.08203 -4.97266,12.15625 -0.66586,1.66699 -1.33231,3.33375 -2,5 -0.66,0 -1.32,0 -2,0 -0.12375,0.88688 -0.2475,1.77375 -0.375,2.6875 -0.56913,3.01638 -1.39114,5.51577 -2.625,8.3125 -0.66,0 -1.32,0 -2,0 -0.33,1.98 -0.66,3.96 -1,6 -0.66,0 -1.32,0 -2,0 -0.11215,0.71543 -0.2243,1.43086 -0.33984,2.16797 -0.70472,3.02319 -1.79304,5.39526 -3.22266,8.14453 -0.45504,0.88301 -0.91008,1.76602 -1.3789,2.67579 -0.34934,0.66386 -0.69868,1.32773 -1.0586,2.01171 -0.66,0 -1.32,0 -2,0 0,0.99 0,1.98 0,3 -0.66,0 -1.32,0 -2,0 -0.33,1.65 -0.66,3.3 -1,5 -0.66,0 -1.32,0 -2,0 -0.12375,0.5775 -0.2475,1.155 -0.375,1.75 -0.63149,2.27336 -1.51358,4.17536 -2.625,6.25 -0.66,0 -1.32,0 -2,0 -0.33,1.65 -0.66,3.3 -1,5 -0.66,0 -1.32,0 -2,0 0,0.99 0,1.98 0,3 -0.66,0 -1.32,0 -2,0 -0.33,1.65 -0.66,3.3 -1,5 -0.66,0 -1.32,0 -2,0 0,0.66 0,1.32 0,2 -0.66,0 -1.32,0 -2,0 -0.33,1.65 -0.66,3.3 -1,5 -0.66,0 -1.32,0 -2,0 -0.26812,0.80438 -0.53625,1.60875 -0.8125,2.4375 -0.58781,1.26844 -0.58781,1.26844 -1.1875,2.5625 -0.99,0.33 -1.98,0.66 -3,1 -0.33,1.65 -0.66,3.3 -1,5 -0.66,0 -1.32,0 -2,0 0,0.66 0,1.32 0,2 -0.66,0 -1.32,0 -2,0 -0.28875,0.76313 -0.5775,1.52625 -0.875,2.3125 -1.125,2.6875 -1.125,2.6875 -3.125,5.6875 -0.66,0 -1.32,0 -2,0 -0.26812,0.76313 -0.53625,1.52625 -0.8125,2.3125 -1.13884,2.57739 -2.00166,3.95705 -4.1875,5.6875 -0.66,0 -1.32,0 -2,0 -0.2475,0.53625 -0.495,1.0725 -0.75,1.625 -1.55652,2.9574 -3.28435,5.67225 -5.25,8.375 -0.66,0 -1.32,0 -2,0 -0.33,0.99 -0.66,1.98 -1,3 -0.66,0 -1.32,0 -2,0 0,0.66 0,1.32 0,2 -1.375,1.625 -1.375,1.625 -3,3 -0.66,0 -1.32,0 -2,0 -0.33,0.99 -0.66,1.98 -1,3 -0.66,0 -1.32,0 -2,0 0,0.66 0,1.32 0,2 -0.66,0 -1.32,0 -2,0 -0.33,0.99 -0.66,1.98 -1,3 -0.66,0 -1.32,0 -2,0 0,0.66 0,1.32 0,2 -0.66,0 -1.32,0 -2,0 -0.33,0.99 -0.66,1.98 -1,3 -0.66,0 -1.32,0 -2,0 -0.33,0.99 -0.66,1.98 -1,3 -0.66,0 -1.32,0 -2,0 0,0.66 0,1.32 0,2 -0.66,0 -1.32,0 -2,0 -0.33,0.99 -0.66,1.98 -1,3 -0.66,0 -1.32,0 -2,0 0,0.66 0,1.32 0,2 -1.67969,1.50782 -1.67969,1.50782 -3.875,3.125 -0.7193,0.53883 -1.43859,1.07766 -2.17969,1.63282 -1.94531,1.24218 -1.94531,1.24218 -3.94531,1.24218 -0.2475,0.59813 -0.495,1.19625 -0.75,1.8125 -1.43072,2.50377 -2.81916,3.66823 -5.25,5.1875 -0.66,0 -1.32,0 -2,0 0,0.66 0,1.32 0,2 -1.76958,2.3284 -2.81583,2.95289 -5.6875,3.6875 -1.14469,0.15469 -1.14469,0.15469 -2.3125,0.3125 0,0.66 0,1.32 0,2 -0.66,0 -1.32,0 -2,0 0,0.66 0,1.32 0,2 -3.49655,2.60209 -6.89161,4.54998 -11,6 0,0.66 0,1.32 0,2 -1.65,0.33 -3.3,0.66 -5,1 0,0.66 0,1.32 0,2 -0.66,0 -1.32,0 -2,0 0,0.66 0,1.32 0,2 -2.90549,2.0417 -4.40142,3 -8,3 0,0.66 0,1.32 0,2 -1.65,0.33 -3.3,0.66 -5,1 0,0.66 0,1.32 0,2 -2.90549,2.0417 -4.40142,3 -8,3 0,0.66 0,1.32 0,2 -1.65,0.33 -3.3,0.66 -5,1 0,0.66 0,1.32 0,2 -1.76646,1.0077 -3.53834,2.00592 -5.3125,3 -0.98613,0.55688 -1.97226,1.11375 -2.98828,1.6875 -2.69922,1.3125 -2.69922,1.3125 -5.69922,1.3125 0,0.66 0,1.32 0,2 -1.32,0 -2.64,0 -4,0 0,0.66 0,1.32 0,2 -1.98,0.33 -3.96,0.66 -6,1 0,0.66 0,1.32 0,2 -6.5,3 -6.5,3 -11,3 0,0.66 0,1.32 0,2 -2.31,0.33 -4.62,0.66 -7,1 0,0.66 0,1.32 0,2 -1.05058,0.38672 -2.10117,0.77344 -3.18359,1.17188 -8.96727,3.28449 -8.96727,3.28449 -17.75391,7.01562 -11.84731,5.41397 -11.84731,5.41397 -18.0625,4.8125 0,0.66 0,1.32 0,2 -3.63,0.33 -7.26,0.66 -11,1 0,0.66 0,1.32 0,2 -1.28777,0.27715 -2.57554,0.5543 -3.90234,0.83985 -1.67843,0.36569 -3.35681,0.73159 -5.03516,1.09765 -1.2752,0.27361 -1.2752,0.27361 -2.57617,0.55274 -0.80889,0.17724 -1.61777,0.35449 -2.45117,0.53711 -0.74887,0.16234 -1.49773,0.32468 -2.26929,0.49194 -1.77761,0.32694 -1.77761,0.32694 -2.76587,1.48071 -6.35799,1.60697 -12.78309,2.97101 -19.3125,3.625 -3.48517,-0.038 -3.48517,-0.038 -4.6875,1.375 -7.02055,1.03582 -13.91293,1.10793 -21,1 0,0.66 0,1.32 0,2 -10.80108,0.86555 -21.51235,1.14903 -32.34375,1.13282 -1.62414,6.7e-4 -3.24829,0.002 -4.87244,0.003 -3.3783,10e-4 -6.75658,-6.3e-4 -10.13488,-0.005 -4.28595,-0.006 -8.57184,-0.002 -12.85778,0.004 -3.34615,0.004 -6.69227,0.002 -10.03842,-1.3e-4 -1.57852,-6.6e-4 -3.15704,1.2e-4 -4.73556,0.002 -10.05185,0.0118 -19.99475,-0.33315 -30.01717,-1.1363 0,-0.66 0,-1.32 0,-2 -0.76183,0.0116 -1.52367,0.0232 -2.30859,0.0352 -6.32981,0.0553 -12.41696,-0.19856 -18.69141,-1.03516 0,-0.66 0,-1.32 0,-2 -0.55945,0.0348 -1.1189,0.0696 -1.69531,0.10547 -10.10764,0.34126 -19.67411,-2.25196 -29.30469,-5.10547 -3.99442,-1.02265 -7.99642,-2.01389 -12,-3 0,-0.66 0,-1.32 0,-2 -3.63,-0.33 -7.26,-0.66 -11,-1 0,-0.66 0,-1.32 0,-2 -0.7309,0.0361 -1.4618,0.0722 -2.21484,0.10938 -2.92092,-0.11471 -4.68994,-0.69016 -7.34766,-1.85938 -3.73137,-1.57546 -7.45583,-2.94912 -11.3125,-4.1875 -6.19,-2.01777 -12.15247,-4.47863 -18.125,-7.0625 0,-0.66 0,-1.32 0,-2 -2.31,-0.33 -4.62,-0.66 -7,-1 0,-0.66 0,-1.32 0,-2 -0.88687,-0.12375 -1.77375,-0.2475 -2.6875,-0.375 -3.01637,-0.56912 -5.51576,-1.39114 -8.3125,-2.625 0,-0.66 0,-1.32 0,-2 -0.9075,-0.12375 -1.815,-0.2475 -2.75,-0.375 -2.8397,-0.54609 -4.7759,-1.19763 -7.25,-2.625 0,-0.66 0,-1.32 0,-2 -1.05187,-0.15468 -1.05187,-0.15468 -2.125,-0.3125 -3.26637,-0.78109 -5.92218,-2.10808 -8.875,-3.6875 0,-0.66 0,-1.32 0,-2 -0.86625,-0.18562 -0.86625,-0.18562 -1.75,-0.375 -2.27336,-0.63148 -4.17535,-1.51358 -6.25,-2.625 0,-0.66 0,-1.32 0,-2 -1.32,0 -2.64,0 -4,0 0,-0.66 0,-1.32 0,-2 -0.7425,-0.28875 -1.485,-0.5775 -2.25,-0.875 -2.3174,-0.94802 -4.52917,-1.97345 -6.75,-3.125 0,-0.66 0,-1.32 0,-2 -0.53625,-0.0825 -1.0725,-0.165 -1.625,-0.25 -3.24841,-1.02581 -5.66252,-2.71563 -8.375,-4.75 0,-0.66 0,-1.32 0,-2 -1.65,-0.33 -3.3,-0.66 -5,-1 0,-0.66 0,-1.32 0,-2 -0.78375,-0.30937 -1.5675,-0.61875 -2.375,-0.9375 -2.625,-1.0625 -2.625,-1.0625 -4.625,-2.0625 0,-0.66 0,-1.32 0,-2 -1.32,-0.33 -2.64,-0.66 -4,-1 0,-0.66 0,-1.32 0,-2 -0.66,0 -1.32,0 -2,0 0,-0.66 0,-1.32 0,-2 -1.65,-0.33 -3.3,-0.66 -5,-1 0,-0.66 0,-1.32 0,-2 -0.99,-0.33 -1.98,-0.66 -3,-1 0,-0.66 0,-1.32 0,-2 -0.99,0 -1.98,0 -3,0 0,-0.66 0,-1.32 0,-2 -0.63937,-0.26812 -1.27875,-0.53625 -1.9375,-0.8125 -2.0625,-1.1875 -2.0625,-1.1875 -3.0625,-4.1875 -2.01508,-0.73323 -2.01508,-0.73323 -4,-1 0,-0.66 0,-1.32 0,-2 -0.61875,-0.30937 -1.2375,-0.61875 -1.875,-0.9375 -1.375,-0.6875 -2.75,-1.375 -4.125,-2.0625 0,-0.66 0,-1.32 0,-2 -0.99,-0.33 -1.98,-0.66 -3,-1 0,-0.66 0,-1.32 0,-2 -0.66,0 -1.32,0 -2,0 0,-0.66 0,-1.32 0,-2 -0.99,-0.33 -1.98,-0.66 -3,-1 0,-0.66 0,-1.32 0,-2 -0.63937,-0.26812 -1.27875,-0.53625 -1.9375,-0.8125 -2.0625,-1.1875 -2.0625,-1.1875 -3.0625,-4.1875 -0.99,-0.33 -1.98,-0.66 -3,-1 0,-0.66 0,-1.32 0,-2 -0.66,0 -1.32,0 -2,0 0,-0.66 0,-1.32 0,-2 -0.99,-0.33 -1.98,-0.66 -3,-1 0,-0.66 0,-1.32 0,-2 -0.66,0 -1.32,0 -2,0 0,-0.66 0,-1.32 0,-2 -0.99,-0.33 -1.98,-0.66 -3,-1 0,-0.66 0,-1.32 0,-2 -0.99,-0.33 -1.98,-0.66 -3,-1 0,-0.66 0,-1.32 0,-2 -0.66,0 -1.32,0 -2,0 0,-0.66 0,-1.32 0,-2 -0.66,0 -1.32,0 -2,0 -1,-1.66666 -2,-3.33333 -3,-5 -0.86625,-0.86625 -1.7325,-1.7325 -2.625,-2.625 -2.375,-2.375 -2.375,-2.375 -3.375,-5.375 -0.66,0 -1.32,0 -2,0 0,-0.99 0,-1.98 0,-3 -0.66,0 -1.32,0 -2,0 -2.70515,-2.23469 -4.34722,-4.93054 -6,-8 0,-0.66 0,-1.32 0,-2 -0.99,-0.33 -1.98,-0.66 -3,-1 0,-1.32 0,-2.64 0,-4 -0.63937,-0.2475 -1.27875,-0.495 -1.9375,-0.75 -2.0625,-1.25 -2.0625,-1.25 -2.8125,-3.375 -0.0825,-0.61875 -0.165,-1.2375 -0.25,-1.875 -0.66,0 -1.32,0 -2,0 -3,-4.38461 -3,-4.38461 -3,-7 -0.66,0 -1.32,0 -2,0 -0.33,-1.65 -0.66,-3.3 -1,-5 -0.66,0 -1.32,0 -2,0 0,-0.99 0,-1.98 0,-3 -0.66,0 -1.32,0 -2,0 -0.33,-1.65 -0.66,-3.3 -1,-5 -0.66,0 -1.32,0 -2,0 -2.04169,-2.90548 -3,-4.40142 -3,-8 -0.66,0 -1.32,0 -2,0 -0.33,-1.65 -0.66,-3.3 -1,-5 -0.66,0 -1.32,0 -2,0 0,-0.99 0,-1.98 0,-3 -0.66,0 -1.32,0 -2,0 -0.82011,-1.55851 -1.63076,-3.12201 -2.4375,-4.6875 -0.45246,-0.87011 -0.90492,-1.74023 -1.37109,-2.63671 -1.15133,-2.58577 -1.75462,-4.88935 -2.19141,-7.67579 -0.66,0 -1.32,0 -2,0 -0.495,-2.97 -0.495,-2.97 -1,-6 -0.66,0 -1.32,0 -2,0 -3,-6.5 -3,-6.5 -3,-11 -0.66,0 -1.32,0 -2,0 0,-1.32 0,-2.64 0,-4 -0.66,0 -1.32,0 -2,0 -1.00858,-2.41339 -2.00702,-4.83018 -3,-7.25 -0.42926,-1.02287 -0.42926,-1.02287 -0.86719,-2.0664 -1.42626,-3.49775 -2.13281,-5.8526 -2.13281,-9.6836 -0.66,0 -1.32,0 -2,0 -0.26554,-0.88043 -0.53109,-1.76085 -0.80469,-2.66796 -0.3532,-1.16145 -0.7064,-2.32289 -1.07031,-3.51954 -0.34805,-1.14855 -0.69609,-2.2971 -1.05469,-3.48046 -1.0009,-3.26365 -1.0009,-3.26365 -2.19531,-6.08204 -0.99286,-2.55307 -1.03018,-4.53433 -0.875,-7.25 -0.66,0 -1.32,0 -2,0 -0.26554,-1.07378 -0.53109,-2.14757 -0.80469,-3.2539 -0.3567,-1.43622 -0.71348,-2.87241 -1.07031,-4.3086 -0.26103,-1.0567 -0.26103,-1.0567 -0.52734,-2.13476 -0.82555,-3.31749 -1.68596,-6.60782 -2.63672,-9.89258 -0.97262,-3.45161 -1.7397,-6.89802 -2.46094,-10.41016 -0.76633,-3.66521 -1.5648,-7.21959 -2.625,-10.8125 -0.95291,-3.47132 -1.33171,-6.78875 -1.6289,-10.36718 -0.0612,-1.83742 -0.0612,-1.83742 -1.2461,-2.82032 -0.20768,-1.47396 -0.36716,-2.95491 -0.5,-4.4375 -0.29147,-3.40747 -0.29147,-3.40747 -1.5,-6.5625 -2.91654,-19.08156 -2.3137,-38.79231 -2.26074,-58.03833 0.0114,-4.18701 0.005,-8.37377 -0.007,-12.56077 -0.11326,-48.69327 -0.11326,-48.69327 4.26763,-66.4009 0.33,-0.33 0.66,-0.66 1,-1 0.37393,-2.50064 0.70524,-4.98993 1,-7.5 0.86487,-7.36486 0.86487,-7.36486 2,-8.5 0.36761,-2.32818 0.70242,-4.66183 1,-7 0.66,0 1.32,0 2,0 0.049,-0.79664 0.098,-1.59328 0.14844,-2.41406 0.39012,-5.52901 0.8579,-10.38025 2.85156,-15.58594 1.04016,-3.65585 2.01984,-7.32765 3,-11 0.66,0 1.32,0 2,0 0.049,-0.58007 0.098,-1.16015 0.14844,-1.75781 0.44806,-4.68142 1.14958,-8.81704 2.85156,-13.24219 0.66,0 1.32,0 2,0 0.33,-2.64 0.66,-5.28 1,-8 0.66,0 1.32,0 2,0 -0.0825,-0.66 -0.165,-1.32 -0.25,-2 0.29541,-3.54486 1.45892,-5.67368 3.11328,-8.77343 1.17716,-2.30577 2.13611,-4.62677 3.07422,-7.03907 2.14454,-5.49376 4.58138,-10.83886 7.0625,-16.1875 0.66,0 1.32,0 2,0 0.0928,-0.86238 0.18563,-1.72476 0.28125,-2.61328 0.80441,-3.79035 2.1866,-6.28862 4.21875,-9.57422 2.61077,-4.23742 2.61077,-4.23742 4.5,-8.8125 0.66,0 1.32,0 2,0 0.12375,-0.5775 0.2475,-1.155 0.375,-1.75 0.63149,-2.27335 1.51358,-4.17535 2.625,-6.25 0.66,0 1.32,0 2,0 0.12375,-0.7425 0.2475,-1.485 0.375,-2.25 0.57987,-2.55141 1.36209,-4.47675 2.625,-6.75 0.66,0 1.32,0 2,0 0.33,-1.32 0.66,-2.64 1,-4 0.66,0 1.32,0 2,0 0,-1.32 0,-2.64 0,-4 0.66,-0.33 1.32,-0.66 2,-1 1.02178,-1.72425 2.0413,-3.45082 3,-5.21093 0.91907,-1.64428 1.95511,-3.22173 3,-4.78907 0.66,0 1.32,0 2,0 0.33,-1.65 0.66,-3.3 1,-5 0.66,0 1.32,0 2,0 0,-0.66 0,-1.32 0,-2 0.66,0 1.32,0 2,0 0.11473,-0.58265 0.22946,-1.16531 0.34766,-1.76562 0.70058,-2.39961 1.63427,-3.96298 3.08984,-5.98438 0.43184,-0.61359 0.86367,-1.22718 1.3086,-1.85937 0.41378,-0.45891 0.82757,-0.91781 1.2539,-1.39063 0.66,0 1.32,0 2,0 0.33,-0.99 0.66,-1.98 1,-3 0.66,0 1.32,0 2,0 0,-0.99 0,-1.98 0,-3 0.66,0 1.32,0 2,0 0.10313,-0.59812 0.20625,-1.19625 0.3125,-1.8125 0.78574,-2.50008 1.65669,-3.56285 3.6875,-5.1875 0.66,0 1.32,0 2,0 0,-0.66 0,-1.32 0,-2 0.66,0 1.32,0 2,0 0.33,-1.32 0.66,-2.64 1,-4 0.66,0 1.32,0 2,0 0,-0.66 0,-1.32 0,-2 0.66,0 1.32,0 2,0 0.33,-0.99 0.66,-1.98 1,-3 0.66,0 1.32,0 2,0 0.26813,-0.63937 0.53625,-1.27875 0.8125,-1.9375 1.1875,-2.0625 1.1875,-2.0625 4.1875,-3.0625 0.33,-0.66 0.66,-1.32 1,-2 1,-2 1,-2 4,-3 0.495,-1.485 0.495,-1.485 1,-3 0.66,0 1.32,0 2,0 0.26813,-0.63937 0.53625,-1.27875 0.8125,-1.9375 1.1875,-2.0625 1.1875,-2.0625 4.1875,-3.0625 0.33,-0.66 0.66,-1.32 1,-2 1,-2 1,-2 4,-3 0.33,-0.99 0.66,-1.98 1,-3 0.66,0 1.32,0 2,0 0,-0.66 0,-1.32 0,-2 0.66,0 1.32,0 2,0 0,-0.66 0,-1.32 0,-2 1.32,-0.33 2.64,-0.66 4,-1 0,-0.66 0,-1.32 0,-2 0.66,0 1.32,0 2,0 0,-0.66 0,-1.31999 0,-1.99999 4.47059,-4 4.47059,-4 7,-4 0,-0.66 0,-1.32 0,-2 0.99,0 1.98,0 3,0 0.33,-0.99 0.66,-1.98 1,-3 0.66,0 1.32,0 2,0 0,-0.66 0,-1.32 0,-2 4.38462,-3 4.38462,-3 7,-3 0.33,-0.99 0.66,-1.98 1,-3 0.99,0 1.98,0 3,0 0,-0.66 0,-1.32 0,-2 0.66,0 1.32,0 2,0 0,-0.66 0,-1.32 0,-2 2.475,-0.495 2.475,-0.495 5,-1 0,-0.66 0,-1.32 0,-2 4.06265,-3.5475 9.55686,-8 15,-8 0.33,-0.99 0.66,-1.98 1,-3 3.97871,-2.60146 7.22077,-4.4207 12,-5 0,-0.66 0,-1.32 0,-2 2.90549,-2.0417 4.40142,-3 8,-3 0,-0.66 0,-1.32 0,-2 1.14727,-0.56719 2.29453,-1.13438 3.47656,-1.71875 3.62501,-1.81171 7.19866,-3.70416 10.76392,-5.63013 6.10163,-3.29054 12.11987,-6.39672 18.62671,-8.823 2.85335,-1.10789 5.53368,-2.48937 8.25781,-3.8789 8.72562,-4.41735 8.72562,-4.41735 13.875,-3.94922 0,-0.66 0,-1.32 0,-2 0.88043,-0.26555 1.76086,-0.53109 2.66797,-0.80469 1.74217,-0.5298 1.74217,-0.5298 3.51953,-1.07031 1.14856,-0.34805 2.29711,-0.69609 3.48047,-1.05469 3.26365,-1.00091 3.26365,-1.00091 6.08203,-2.19531 2.55307,-0.99286 4.53434,-1.03018 7.25,-0.875 0,-0.66 0,-1.32 0,-2 1.07379,-0.26555 2.14758,-0.53109 3.25391,-0.80469 1.43621,-0.35671 2.87241,-0.71348 4.30859,-1.07031 1.05671,-0.26104 1.05671,-0.26104 2.13477,-0.52734 3.39693,-0.84532 6.75627,-1.73149 10.11523,-2.72266 3.21526,-0.88262 5.87169,-1.03675 9.1875,-0.875 0,-0.66 0,-1.32 0,-2 1.13438,-0.14438 2.26875,-0.28875 3.4375,-0.4375 3.37027,-0.17422 3.37027,-0.17422 4.5625,-1.5625 3.20536,-0.479307 6.41058,-0.872069 9.62891,-1.250001 3.48218,-0.153627 3.48218,-0.153627 6.37109,-1.75 1.47397,-0.207682 2.95491,-0.36716 4.4375,-0.5 3.40748,-0.291469 3.40748,-0.291469 6.5625,-1.5 1.94497,-0.210563 3.89574,-0.368611 5.84766,-0.5 1.16209,-0.0825 2.32418,-0.165 3.52148,-0.25 2.46613,-0.166929 4.93228,-0.333595 7.39844,-0.5 1.1608,-0.0825 2.3216,-0.165 3.51758,-0.25 1.60693,-0.108281 1.60693,-0.108281 3.24634,-0.21875 3.69583,-0.421551 6.10279,-1.408509 10.26702,-1.411074 z"
     fill="#48b02c"
     id="path1" />
  <path
     d="m 647.5625,278 c 3.57325,2.9319 6.69402,6.27615 9.4375,10 0,0.66 0,1.32 0,2 0.55687,0.0619 1.11375,0.12375 1.6875,0.1875 3.26677,1.14778 5.04422,3.30724 7.3125,5.8125 0.7657,0.81984 1.53141,1.63969 2.32031,2.48437 C 675,305.72943 675,305.72943 675,308 c 0.83531,0.0928 0.83531,0.0928 1.6875,0.1875 4.50348,1.5823 7.2092,5.67762 10.1875,9.25 2.59086,3.07832 5.42142,5.58575 8.51172,8.14844 2.19731,1.92597 3.94943,4.01812 5.61328,6.41406 0,0.66 0,1.32 0,2 0.61875,0.14437 1.2375,0.28875 1.875,0.4375 2.55941,0.67749 3.77973,1.02446 5.23047,3.28516 2.04792,5.21369 1.68565,11.35605 -0.41797,16.46484 -0.83531,0.89719 -0.83531,0.89719 -1.6875,1.8125 -0.99,0 -1.98,0 -3,0 0,0.66 0,1.32 0,2 -1.65003,1.35387 -3.31744,2.68678 -5,4 -0.33,0.66 -0.66,1.32 -1,2 -0.66,0 -1.32,0 -2,0 -0.33,1.32 -0.66,2.64 -1,4 -1.32,0.33 -2.64,0.66 -4,1 0,0.66 0,1.32 0,2 -1.65003,1.35387 -3.31744,2.68678 -5,4 -0.33,0.66 -0.66,1.32 -1,2 -0.66,0 -1.32,0 -2,0 0,0.66 0,1.32 0,2 -1.375,1.625 -1.375,1.625 -3,3 -0.66,0 -1.32,0 -2,0 0,0.66 0,1.32 0,2 -1.65003,1.35387 -3.31744,2.68678 -5,4 -0.33,0.66 -0.66,1.32 -1,2 -0.66,0 -1.32,0 -2,0 -0.33,1.32 -0.66,2.64 -1,4 -1.32,0.33 -2.64,0.66 -4,1 0,0.66 0,1.32 0,2 -1.65003,1.35387 -3.31744,2.68678 -5,4 -0.33,0.66 -0.66,1.32 -1,2 -0.66,0 -1.32,0 -2,0 -0.33,1.32 -0.66,2.64 -1,4 -1.32,0.33 -2.64,0.66 -4,1 0,0.66 0,1.32 0,2 -2.97379,2.83483 -5.18936,3.45359 -9.25,3.5 -5.63527,-0.13597 -9.53074,-1.77712 -13.75,-5.5 -1.87301,-3.74602 -1.54022,-7.92164 -1,-12 1.26578,-3.00562 2.77865,-5.60344 5,-8 1.485,-0.495 1.485,-0.495 3,-1 0.33,-0.99 0.66,-1.98 1,-3 0.66,0 1.32,0 2,0 0.26813,-0.63937 0.53625,-1.27875 0.8125,-1.9375 C 640,380 640,380 643,379 c 0.33,-0.66 0.66,-1.32 1,-2 1,-2 1,-2 4,-3 0.33,-0.99 0.66,-1.98 1,-3 0.66,0 1.32,0 2,0 0.26813,-0.63937 0.53625,-1.27875 0.8125,-1.9375 C 653,367 653,367 656,366 c 1.15008,-1.96673 1.15008,-1.96673 2,-4 0.33,-0.33 0.66,-0.66 1,-1 -31.04133,-0.0457 -62.08265,-0.081 -93.124,-0.10213 -3.66733,-0.002 -7.33465,-0.005 -11.00198,-0.008 -1.09511,-7.9e-4 -1.09511,-7.9e-4 -2.21235,-0.002 -11.81083,-0.009 -23.62165,-0.0245 -35.43247,-0.0429 -12.12508,-0.0187 -24.25015,-0.0298 -36.37524,-0.0339 -7.47775,-0.003 -14.95545,-0.0114 -22.43318,-0.0277 -5.74046,-0.0119 -11.48088,-0.0131 -17.22135,-0.0104 -2.35014,-5.5e-4 -4.70028,-0.005 -7.0504,-0.0122 -3.21519,-0.01 -6.43014,-0.007 -9.64534,-0.002 -0.92415,-0.006 -1.84831,-0.0116 -2.80046,-0.0177 -12.41386,0.0566 -25.57049,2.84396 -35.70323,10.25816 -2.64195,1.16738 -5.25967,2.08656 -8,3 0,0.66 0,1.32 0,2 -1.60937,1.51563 -1.60937,1.51563 -3.75,3.25 -3.48774,2.95446 -5.80288,5.86837 -8.25,9.75 -0.825,0.7425 -1.65,1.485 -2.5,2.25 -2.8539,3.13929 -4.05582,5.88697 -5.46313,9.84644 -0.66284,1.85614 -1.35406,3.70255 -2.0813,5.53442 -3.07094,8.1834 -3.59295,15.61673 -3.51807,24.30664 -0.0238,1.26779 -0.0477,2.53559 -0.0723,3.8418 0.0252,16.39299 7.24813,31.1926 18.40821,43.00586 2.94795,2.93243 5.97156,5.63151 9.22656,8.21484 0.57879,0.51305 1.15758,1.02609 1.75391,1.55469 5.77446,4.84621 12.07174,6.48705 19.24609,8.44531 1.0132,0.35449 2.02641,0.70898 3.07031,1.07422 2.80985,0.88791 5.25097,1.27716 8.17969,1.48828 4.55071,0.33786 4.55071,0.33786 6.75,1.4375 2.65733,0.10786 5.28915,0.1549 7.94717,0.15822 0.83067,0.005 1.66134,0.01 2.51719,0.015 2.79915,0.0154 5.59828,0.0238 8.39746,0.0321 2.00027,0.01 4.00054,0.0196 6.00081,0.03 5.4439,0.0271 10.88782,0.0481 16.33176,0.068 5.68419,0.0218 11.36836,0.0492 17.05253,0.0761 10.76991,0.05 21.53984,0.0949 32.30978,0.13802 12.2586,0.0493 24.51717,0.10427 36.77574,0.15968 25.2225,0.11389 50.44502,0.22071 75.66756,0.32292 0,0.66 0,1.32 0,2 0.61746,-0.0232 1.23492,-0.0464 1.87109,-0.0703 10.01771,-0.21347 17.97001,2.13141 27.12891,6.07031 0,0.66 0,1.32 0,2 4.455,1.485 4.455,1.485 9,3 0,0.66 0,1.32 0,2 0.53625,0.0825 1.0725,0.165 1.625,0.25 10.02179,3.16477 20.36715,13.39947 26.375,21.75 0.33,0.99 0.66,1.98 1,3 0.66,0 1.32,0 2,0 0.66,2.64 1.32,5.28 2,8 0.66,0 1.32,0 2,0 0,0.99 0,1.98 0,3 0.66,0 1.32,0 2,0 2.03436,3.72965 3,5.66905 3,10 0.66,0 1.32,0 2,0 0.33,2.31 0.66,4.62 1,7 0.66,0 1.32,0 2,0 2.85132,10.47182 3.33235,20.8262 3.375,31.625 0.0203,1.94532 0.0203,1.94532 0.041,3.92993 -0.0547,12.00655 -2.10257,23.18439 -6.60352,34.32007 -0.27263,0.69996 -0.54527,1.39992 -0.82617,2.12109 -0.65264,1.6717 -1.31797,3.33843 -1.98633,5.00391 -0.66,0 -1.32,0 -2,0 -0.0825,0.53625 -0.165,1.0725 -0.25,1.625 -1.02581,3.24841 -2.71563,5.66252 -4.75,8.375 -0.66,0 -1.32,0 -2,0 -0.2591,0.56332 -0.5182,1.12664 -0.78515,1.70703 -4.25746,8.03579 -10.77123,13.91632 -17.89453,19.38281 -2.5064,1.87531 -2.5064,1.87531 -4.32032,4.91016 -0.66,0 -1.32,0 -2,0 0,0.66 0,1.32 0,2 -5.75,3 -5.75,3 -8,3 0,0.66 0,1.32 0,2 -1.09699,0.32613 -2.19398,0.65227 -3.32421,0.98828 -1.45454,0.44105 -2.90896,0.88248 -4.36329,1.32422 -0.72123,0.21334 -1.44246,0.42668 -2.18554,0.64648 -4.11408,1.25859 -7.44256,2.77769 -11.12693,5.04095 -3.3125,0.1875 -3.3125,0.1875 -6,0 0,0.66 0,1.32 0,2 -64.68,0 -129.36,0 -196,0 0,1.65 0,3.3 0,5 -1,2.3125 -1,2.3125 -2,4 -0.66,0 -1.32,0 -2,0 -0.26812,0.88687 -0.53625,1.77375 -0.8125,2.6875 C 425.91707,719.81028 418.45605,726.09668 411,732 c -0.66,0 -1.32,0 -2,0 0,0.66 0,1.32 0,2 -14.35459,7.85157 -28.81248,8.6671 -44.80078,5.73047 C 361.68215,738.89443 360.10053,737.59723 358,736 c -2.11265,-0.76682 -2.11265,-0.76682 -4.25,-1.1875 -1.2375,-0.26813 -2.475,-0.53625 -3.75,-0.8125 -0.495,-1.98 -0.495,-1.98 -1,-4 -0.72187,-0.0619 -1.44375,-0.12375 -2.1875,-0.1875 -3.73666,-1.07948 -5.33902,-2.85807 -7.8125,-5.8125 -0.34227,-1.33107 -0.67752,-2.664 -1,-4 -0.61617,-0.29262 -1.23234,-0.58523 -1.86719,-0.88672 -5.15678,-2.69172 -7.75966,-9.77015 -9.57422,-15.07031 C 325.5545,700.37066 325.19522,696.79532 325,693 c -0.0645,-1.00676 -0.12891,-2.01352 -0.19531,-3.05078 -0.24715,-7.14264 0.51089,-13.74254 2.00781,-20.69922 0.16524,-0.78689 0.33048,-1.57378 0.50073,-2.38452 1.30901,-5.61364 1.30901,-5.61364 4.68677,-7.86548 1.05048,-2.31105 2.05007,-4.64584 3,-7 0.66,-0.99 1.32,-1.98 2,-3 0.66,0 1.32,0 2,0 0.33,-0.99 0.66,-1.98 1,-3 0.66,0 1.32,0 2,0 0,-0.66 0,-1.32 0,-2 3.8396,-2.59813 7.94301,-4.76062 12,-7 0.71156,-0.40992 1.42313,-0.81984 2.15625,-1.24219 C 368.36367,629.08511 382.74529,628.15045 396,632 c 9.51335,3.35386 18.64287,9.06892 25,17 0,0.66 0,1.32 0,2 0.99,0 1.98,0 3,0 1.46484,1.87109 1.46484,1.87109 2.9375,4.4375 0.4834,0.82371 0.9668,1.64742 1.46484,2.49609 1.33448,2.56128 2.53308,5.11785 3.69751,7.75806 0.35684,0.80764 0.71367,1.61529 1.08132,2.4474 0.27021,0.61412 0.54043,1.22823 0.81883,1.86095 24.81693,0.07 49.63385,0.12297 74.45086,0.15544 11.52268,0.0155 23.0453,0.0366 34.56794,0.0709 10.04182,0.0299 20.0836,0.0493 30.12546,0.0559 5.31828,0.004 10.63643,0.0131 15.95467,0.0349 5.00433,0.0203 10.00848,0.0267 15.01286,0.0221 1.83783,8.3e-4 3.67568,0.007 5.51348,0.0183 2.50767,0.0149 5.01467,0.0113 7.52236,0.003 0.72861,0.009 1.45721,0.0175 2.2079,0.0265 4.47672,-0.0396 6.94293,-0.96657 10.64447,-3.38724 1.32,0 2.64,0 4,0 0,-0.66 0,-1.32 0,-2 7.42857,-2.14286 7.42857,-2.14286 11,-3 0,-0.66 0,-1.32 0,-2 1.28913,-0.67155 2.5814,-1.33709 3.875,-2 0.7193,-0.37125 1.43859,-0.7425 2.17969,-1.125 C 653,656 653,656 655,656 c 0.2475,-0.61875 0.495,-1.2375 0.75,-1.875 1.4874,-2.52859 2.68678,-2.84339 5.25,-4.125 1.05021,-1.84972 1.05021,-1.84972 2,-4 1.9375,-2.75 1.9375,-2.75 4,-5 0.99,0 1.98,0 3,0 0.17402,-0.81404 0.17402,-0.81404 0.35156,-1.64453 0.7728,-2.8072 1.87016,-5.36946 3.02344,-8.04297 2.13585,-5.04555 3.97143,-10.09069 5.625,-15.3125 0.66,0 1.32,0 2,0 0,-10.56 0,-21.12 0,-32 -0.66,0 -1.32,0 -2,0 -0.33,-3.3 -0.66,-6.6 -1,-10 -0.66,0 -1.32,0 -2,0 0,-0.99 0,-1.98 0,-3 -0.66,0 -1.32,0 -2,0 -1.23921,-2.97411 -2.30058,-5.85263 -3,-9 -0.66,0 -1.32,0 -2,0 -0.61875,-1.0725 -1.2375,-2.145 -1.875,-3.25 -0.36867,-0.63809 -0.73734,-1.27617 -1.11719,-1.93359 C 665,555 665,555 664,552.6875 c -0.88514,-1.84136 -0.88514,-1.84136 -2.87109,-2.62109 -2.13386,-1.06889 -3.47276,-2.18128 -5.19141,-3.81641 -4.49933,-3.95864 -9.62538,-6.54036 -14.9375,-9.25 -0.75023,-0.39445 -1.50047,-0.78891 -2.27344,-1.19531 -9.02861,-4.66998 -17.57841,-5.95426 -27.65223,-5.94945 -0.87563,-0.004 -1.75126,-0.007 -2.65342,-0.0107 -2.92164,-0.0106 -5.84325,-0.0144 -8.7649,-0.0181 -2.09965,-0.006 -4.1993,-0.0131 -6.29894,-0.0203 -4.51524,-0.0146 -9.03047,-0.0264 -13.54572,-0.036 -7.13908,-0.0155 -14.27812,-0.0394 -21.41717,-0.0649 -20.29844,-0.0712 -40.5969,-0.13104 -60.8954,-0.18212 -11.21533,-0.0283 -22.43061,-0.0637 -33.64589,-0.10665 -7.09759,-0.0268 -14.19514,-0.0447 -21.29278,-0.056 -4.41323,-0.009 -8.82641,-0.0265 -13.23961,-0.0462 -2.04703,-0.007 -4.09409,-0.0115 -6.14114,-0.012 -2.79368,-10e-4 -5.58704,-0.0143 -8.38067,-0.0306 -0.81041,0.003 -1.62082,0.005 -2.45579,0.008 C 407.82571,529.23857 404.26361,528.66373 400,527 c -1.57781,-0.40219 -1.57781,-0.40219 -3.1875,-0.8125 -4.29271,-1.33707 -8.20862,-3.13445 -12.26172,-5.06641 C 382.3516,520.15453 380.34328,519.48841 378,519 c 0,-0.66 0,-1.32 0,-2 -1.29937,-0.15469 -1.29937,-0.15469 -2.625,-0.3125 -3.54183,-0.72148 -6.21812,-1.95873 -9.375,-3.6875 0,-0.66 0,-1.32 0,-2 -0.5775,-0.28875 -1.155,-0.5775 -1.75,-0.875 -1.11375,-0.55688 -1.11375,-0.55688 -2.25,-1.125 -0.72187,-0.30938 -1.44375,-0.61875 -2.1875,-0.9375 C 358,507 358,507 357,504 c -1.53175,-1.43637 -1.53175,-1.43637 -3.4375,-2.875 -3.89541,-3.28742 -6.97245,-6.91374 -10.0625,-10.9375 -0.44529,-0.57541 -0.89058,-1.15081 -1.34937,-1.74365 C 339,484.26402 339,484.26402 339,482 c -0.99,-0.33 -1.98,-0.66 -3,-1 -1.95542,-2.98459 -2,-4.26415 -2,-8 -0.66,0 -1.32,0 -2,0 -0.39832,-1.33805 -0.39832,-1.33805 -0.80469,-2.70313 -0.3532,-1.17046 -0.7064,-2.34093 -1.07031,-3.54687 -0.52207,-1.74023 -0.52207,-1.74023 -1.05469,-3.51563 -0.94378,-3.12156 -0.94378,-3.12156 -2.19531,-5.45312 -1.27254,-2.59054 -1.00394,-4.94461 -0.875,-7.78125 -0.66,0 -1.32,0 -2,0 -1.43573,-13.30613 -1.60843,-26.70169 0,-40 0.66,0 1.32,0 2,0 -0.0619,-0.63938 -0.12375,-1.27875 -0.1875,-1.9375 0.26311,-4.29743 1.71567,-8.04126 3.1875,-12.0625 0.66,0 1.32,0 2,0 -0.0696,-0.67805 -0.13922,-1.35609 -0.21094,-2.05469 0.27518,-3.84228 1.81334,-6.72911 3.58594,-10.07031 0.47566,-0.93006 0.47566,-0.93006 0.96094,-1.87891 1.43266,-2.77577 2.92968,-5.39452 4.66406,-7.99609 0.66,0 1.32,0 2,0 0.2475,-0.72188 0.495,-1.44375 0.75,-2.1875 1.3727,-3.08857 2.97353,-5.32261 5.25,-7.8125 0.66,0 1.32,0 2,0 0.22945,-0.57492 0.45891,-1.14984 0.69531,-1.74219 1.64362,-2.84434 3.59493,-4.36562 6.17969,-6.38281 0.86367,-0.6832 1.72734,-1.36641 2.61719,-2.07031 C 362,352 362,352 364.25781,350.88281 366.18686,350.1227 366.18686,350.1227 367,348 c 0.66,0 1.32,0 2,0 0,-0.66 0,-1.32 0,-2 1.43429,-0.67355 2.87257,-1.3386 4.3125,-2 0.80051,-0.37125 1.60102,-0.7425 2.42578,-1.125 C 378,342 378,342 381,342 c 0,-0.66 0,-1.32 0,-2 3.78236,-1.73358 7.3122,-3.1458 11.375,-4.0625 1.19625,-0.30938 2.3925,-0.61875 3.625,-0.9375 0.495,-0.99 0.495,-0.99 1,-2 6.5911,-1.0463 13.10186,-1.14034 19.76308,-1.12025 1.04899,-8.6e-4 2.09799,-0.002 3.17877,-0.003 3.49605,-0.002 6.99204,0.004 10.48808,0.009 2.51361,2.9e-4 5.02722,1.3e-4 7.54083,-4.4e-4 5.40193,-2.2e-4 10.80385,0.003 16.20577,0.008 7.81016,0.008 15.6203,0.0107 23.43046,0.012 12.67324,0.002 25.34648,0.009 38.01972,0.0183 12.30664,0.009 24.61328,0.0163 36.91992,0.0205 1.13898,4e-4 1.13898,4e-4 2.30097,8e-4 3.8095,0.001 7.619,0.003 11.42851,0.004 31.57463,0.0104 63.14926,0.028 94.72389,0.0503 -0.33,-0.66 -0.66,-1.32 -1,-2 -0.99,-0.33 -1.98,-0.66 -3,-1 -2,-3 -2,-3 -2,-6 -0.94875,-0.26805 -1.8975,-0.53617 -2.875,-0.81242 C 649,321 649,321 647,318 c 0,-0.99 0,-1.98 0,-3 -0.80438,-0.34031 -0.80438,-0.34031 -1.625,-0.6875 -3.2243,-1.78185 -5.67149,-3.79332 -8.375,-6.3125 0,-0.99 0,-1.98 0,-3 -0.9075,-0.18563 -1.815,-0.37125 -2.75,-0.5625 -3.44522,-1.52385 -4.85926,-2.86893 -6.56641,-6.22656 C 626.25458,293.58911 625.7976,287.4048 628,283 c 0.66,0 1.32,0 2,0 0.33,-0.99 0.66,-1.98 1,-3 5.32493,-3.50666 10.52827,-4.35482 16.5625,-2 z"
     fill="#fbfdfa"
     id="path2" />
  <path
     d="m 395,662 c 1.15625,2.09766 1.15625,2.09766 2,4 1.9708,0.74276 1.9708,0.74276 4,1 0.66,0.33 1.32,0.66 2,1 0.625,2.5625 0.625,2.5625 1,5 0.66,0 1.32,0 2,0 1.65068,8.89457 3.05603,18.52451 -1.6875,26.625 -2.46973,3.4949 -4.98517,6.67716 -8.3125,9.375 -0.99,0 -1.98,0 -3,0 0,0.66 0,1.32 0,2 -10.91331,2.88958 -19.15013,2.08423 -30,-1 0,-0.66 0,-1.32 0,-2 -0.66,0 -1.32,0 -2,0 -1.91016,-2.01172 -1.91016,-2.01172 -4.0625,-4.6875 -0.71285,-0.87012 -1.4257,-1.74023 -2.16016,-2.63672 C 350.64166,694.44954 351.4111,686.20206 352,679 c 0.89933,-3.2812 1.96266,-6.25402 4,-9 0.99,-0.33 1.98,-0.66 3,-1 0.0825,-0.59812 0.165,-1.19625 0.25,-1.8125 1.0824,-3.157 3.12936,-3.88672 5.96094,-5.45313 C 367,661 367,661 370,661 c 0,-0.66 0,-1.32 0,-2 8.52248,-2.27266 17.40758,-1.73066 25,3 z"
     fill="#4db231"
     id="path3" />
  <path
     d="m 390,493 c 2.64693,0.64159 5.2925,1.28805 7.9375,1.9375 0.75475,0.1824 1.50949,0.3648 2.28711,0.55273 5.66211,1.39649 5.66211,1.39649 6.77539,2.50977 1.64107,0.20839 3.28856,0.36752 4.9375,0.5 4.84295,0.39022 4.84295,0.39022 7.0625,1.5 2.65733,0.10786 5.28915,0.1549 7.94717,0.15822 0.83067,0.005 1.66134,0.01 2.51719,0.015 2.79915,0.0154 5.59828,0.0238 8.39746,0.0321 2.00027,0.01 4.00054,0.0196 6.0008,0.03 5.44391,0.0271 10.88783,0.0481 16.33177,0.068 5.6842,0.0218 11.36836,0.0492 17.05253,0.0761 10.76991,0.05 21.53984,0.0949 32.30978,0.13802 12.2586,0.0493 24.51717,0.10427 36.77574,0.15968 25.2225,0.11389 50.44502,0.22071 75.66756,0.32292 0,0.33 0,0.66 0,1 -27.13877,0.0936 -54.27753,0.16404 -81.41643,0.20725 -12.60197,0.0206 -25.20383,0.0487 -37.80574,0.0945 -10.98789,0.0399 -21.97571,0.0657 -32.96367,0.0746 -5.81436,0.005 -11.62851,0.0174 -17.44279,0.0466 -5.48127,0.0273 -10.96224,0.0355 -16.44356,0.0295 -2.00338,10e-4 -4.00677,0.009 -6.0101,0.0244 C 418.42104,502.561 408.95511,501.72026 398,498 c -1.66064,-0.36217 -3.32592,-0.70618 -5,-1 0,-0.66 0,-1.32 0,-2 -0.99,-0.33 -1.98,-0.66 -3,-1 0,-0.33 0,-0.66 0,-1 z"
     fill="#b4dea9"
     id="path4" />
  <path
     d="m 421,502 c 25.91353,-0.0468 51.82706,-0.082 77.74063,-0.10362 12.03349,-0.0103 24.06696,-0.0243 36.10043,-0.0473 10.49461,-0.02 20.98919,-0.0329 31.48381,-0.0373 5.55114,-0.003 11.10222,-0.009 16.65334,-0.0233 5.23744,-0.0137 10.47481,-0.0177 15.71227,-0.0148 1.91019,-5.4e-4 3.82039,-0.004 5.73057,-0.0122 9.01468,-0.0347 17.94603,0.0882 26.91527,1.0651 0.67401,0.0692 1.34803,0.13843 2.04247,0.20973 4.69452,0.58479 8.38905,1.96495 12.62121,3.96358 -3.57645,1.238 -6.33695,0.74926 -10,0 0,-0.66 0,-1.32 0,-2 -13.05931,-0.8012 -26.06688,-1.16326 -39.14917,-1.20532 -1.93381,-0.01 -3.86763,-0.0196 -5.80144,-0.03 -5.18464,-0.0267 -10.3693,-0.0479 -15.55398,-0.068 -5.44252,-0.0221 -10.88502,-0.0494 -16.32752,-0.0761 -10.27706,-0.0496 -20.55415,-0.0947 -30.83124,-0.13802 -11.71245,-0.0496 -23.42487,-0.10445 -35.13729,-0.15968 C 469.13293,503.20954 445.06648,503.10261 421,503 c 0,-0.33 0,-0.66 0,-1 z"
     fill="#f3faf1"
     id="path5" />
  <path
     d="m 637,696 c -1,1 -1,1 -4.0625,1.0625 -0.96938,-0.0206 -1.93875,-0.0412 -2.9375,-0.0625 0,0.66 0,1.32 0,2 -64.68,0 -129.36,0 -196,0 0,1.65 0,3.3 0,5 -1.5,2.3125 -1.5,2.3125 -3,4 0,-1.98 0,-3.96 0,-6 0.66,0 1.32,0 2,0 0,-1.32 0,-2.64 0,-4 0.93777,-0.003 1.87554,-0.007 2.84173,-0.01 22.88021,-0.0812 45.76036,-0.17359 68.64048,-0.2775 11.06491,-0.05 22.12983,-0.0964 33.19479,-0.13435 9.65084,-0.0331 19.30162,-0.073 28.9524,-0.12091 5.10398,-0.0251 10.20792,-0.0469 15.31194,-0.0606 4.81726,-0.013 9.63438,-0.0352 14.45156,-0.064 1.75537,-0.009 3.51076,-0.0147 5.26616,-0.0168 9.46669,-0.0133 18.70037,-0.37675 28.0841,-1.70847 5.06525,-0.70311 5.06525,-0.70311 7.25684,0.39268 z"
     fill="#a9da9c"
     id="path6" />
  <path
     d="m 417,529 c 26.34702,-0.0234 52.69403,-0.041 79.04106,-0.0518 12.2333,-0.005 24.4666,-0.0122 36.69991,-0.0236 10.66224,-0.01 21.32447,-0.0164 31.98672,-0.0187 5.64582,-10e-4 11.29162,-0.004 16.93743,-0.0116 5.31455,-0.007 10.62908,-0.009 15.94363,-0.007 1.94987,-2.7e-4 3.89974,-0.002 5.8496,-0.006 2.66443,-0.005 5.32878,-0.004 7.9932,-10e-4 1.15421,-0.004 1.15421,-0.004 2.33174,-0.009 7.37531,0.0204 13.53527,0.9929 20.21671,4.12908 -3.0689,1.53445 -5.70094,0.54984 -9,0 0,-0.66 0,-1.32 0,-2 -68.64,-0.33 -137.28,-0.66 -208,-1 0,-0.33 0,-0.66 0,-1 z"
     fill="#77c563"
     id="path7" />
  <path
     d="m 402,634 c -3.81757,1.37432 -7.07255,0.67975 -11,0 0,-0.66 0,-1.32 0,-2 -3.56311,0.1103 -7.12521,0.24083 -10.6875,0.375 -1.0074,0.0309 -2.01481,0.0619 -3.05273,0.0937 -1.4647,0.058 -1.4647,0.058 -2.95899,0.11719 -0.89549,0.0314 -1.79099,0.0628 -2.71362,0.0952 -2.80168,0.34529 -4.98841,1.25083 -7.58716,2.31885 -2.3125,-0.375 -2.3125,-0.375 -4,-1 14.00906,-5.55532 27.85816,-5.21015 42,0 z"
     fill="#bde2b3"
     id="path8" />
  <path
     d="m 675,571 c 0.33,0.99 0.66,1.98 1,3 0.66,0 1.32,0 2,0 0.33,3.3 0.66,6.6 1,10 0.66,0 1.32,0 2,0 0,10.56 0,21.12 0,32 -0.66,0 -1.32,0 -2,0 0.0157,-1.22517 0.0157,-1.22517 0.0317,-2.4751 0.0417,-3.7166 0.0676,-7.43315 0.0933,-11.1499 0.0168,-1.2852 0.0335,-2.57039 0.0508,-3.89453 0.01,-1.86592 0.01,-1.86592 0.0195,-3.76953 0.0105,-1.14163 0.021,-2.28325 0.0317,-3.45947 -0.23819,-3.41171 -1.02493,-6.06241 -2.227,-9.25147 -1.22258,-3.93943 -2,-6.85543 -2,-11 z"
     fill="#8acc78"
     id="path9" />
  <path
     d="m 364,739 c 8.58,0.66 17.16,1.32 26,2 -0.33,0.66 -0.66,1.32 -1,2 -2.85475,0.0816 -5.70714,0.14076 -8.5625,0.1875 -1.1998,0.0377 -1.1998,0.0377 -2.42383,0.0762 C 372.55205,743.3306 368.87076,742.49095 364,740 c 0,-0.33 0,-0.66 0,-1 z"
     fill="#7cc668"
     id="path10" />
  <path
     d="m 390,493 c 2.64693,0.64159 5.2925,1.28805 7.9375,1.9375 0.75475,0.1824 1.50949,0.3648 2.28711,0.55273 5.66211,1.39649 5.66211,1.39649 6.77539,2.50977 2.54756,0.28306 5.0951,0.44816 7.65234,0.62109 C 417,499 417,499 419,501 c -2.37588,-0.11486 -4.75015,-0.24158 -7.125,-0.375 -0.66516,-0.0309 -1.33031,-0.0619 -2.01563,-0.0937 C 405.58864,500.28003 401.99917,499.48806 398,498 c -1.66088,-0.36106 -3.32619,-0.70462 -5,-1 0,-0.66 0,-1.32 0,-2 -0.99,-0.33 -1.98,-0.66 -3,-1 0,-0.33 0,-0.66 0,-1 z"
     fill="#6ec058"
     id="path11" />
  <path
     d="m 360,353 c 0.66,0.33 1.32,0.66 2,1 -4.32893,5.18419 -8.76565,9.72706 -14,14 -0.66,-0.33 -1.32,-0.66 -2,-1 0.66,-0.99 1.32,-1.98 2,-3 0.66,0 1.32,0 2,0 0.24492,-0.58266 0.48984,-1.16531 0.74219,-1.76563 1.46217,-2.59739 3.10521,-4.07413 5.38281,-5.98437 0.72445,-0.61359 1.44891,-1.22719 2.19531,-1.85938 C 359.15176,353.70227 359.15176,353.70227 360,353 Z"
     fill="#c9e7c1"
     id="path12" />
  <path
     d="m 368,711 c 0.96938,0.165 1.93875,0.33 2.9375,0.5 7.1107,1.00353 13.98466,0.5295 21.0625,-0.5 -1,2 -1,2 -3.13672,3.11719 -3.36227,1.03666 -6.16372,1.07876 -9.67578,1.00781 -1.16145,-0.0181 -2.32289,-0.0361 -3.51953,-0.0547 C 374.78754,715.0471 373.90711,715.0239 373,715 c 0,-0.66 0,-1.32 0,-2 -1.65,-0.33 -3.3,-0.66 -5,-1 0,-0.33 0,-0.66 0,-1 z"
     fill="#b5dfaa"
     id="path13" />
  <path
     d="m 327,669 c 1.43303,2.86606 0.28501,4.73308 -0.51074,7.69141 -0.83199,3.92576 -0.69885,7.81351 -0.61426,11.80859 0.009,0.82242 0.0181,1.64484 0.0273,2.49219 0.0233,2.00273 0.0592,4.00531 0.0977,6.00781 -0.66,0 -1.32,0 -2,0 -0.0874,-3.72902 -0.14051,-7.45777 -0.1875,-11.1875 -0.0251,-1.0551 -0.0503,-2.11019 -0.0762,-3.19727 -0.01,-1.02158 -0.0193,-2.04316 -0.0293,-3.0957 -0.0236,-1.40608 -0.0236,-1.40608 -0.0476,-2.84057 0.40331,-3.17223 1.54428,-5.06632 3.3406,-7.67896 z"
     fill="#9fd591"
     id="path14" />
  <path
     d="m 630,503 c 5.95507,0.3916 10.6282,1.37125 16,4 -3.57645,1.238 -6.33695,0.74926 -10,0 0,-0.66 0,-1.32 0,-2 -1.65,0 -3.3,0 -5,0 -0.33,-0.66 -0.66,-1.32 -1,-2 z"
     fill="#a9d99c"
     id="path15" />
  <path
     d="m 615,529 c 6.94171,0.33056 12.79081,0.75429 19,4 -3.0689,1.53445 -5.70094,0.54984 -9,0 0,-0.66 0,-1.32 0,-2 -3.3,-0.33 -6.6,-0.66 -10,-1 0,-0.33 0,-0.66 0,-1 z"
     fill="#8bcc7a"
     id="path16" />
  <path
     d="m 346,643 c -1.28888,2.87519 -2.53267,5.00716 -5,7 -2.1875,0.6875 -2.1875,0.6875 -4,1 0,-0.66 0,-1.32 0,-2 0.66,0 1.32,0 2,0 0.33,-0.99 0.66,-1.98 1,-3 0.66,0 1.32,0 2,0 0,-0.66 0,-1.32 0,-2 2,-1 2,-1 4,-1 z"
     fill="#cce8c4"
     id="path17" />
  <path
     d="m 364,389 c 0.33,0.66 0.66,1.32 1,2 -0.9375,2.625 -0.9375,2.625 -2,5 -0.66,0 -1.32,0 -2,0 -0.12375,0.80437 -0.2475,1.60875 -0.375,2.4375 -0.20625,0.84562 -0.4125,1.69125 -0.625,2.5625 -0.99,0.495 -0.99,0.495 -2,1 2.89066,-9.59453 2.89066,-9.59453 6,-13 z"
     fill="#87ca74"
     id="path18" />
  <path
     d="m 345,368 c 0.33,1.32 0.66,2.64 1,4 -0.99,0.33 -1.98,0.66 -3,1 0,0.66 0,1.32 0,2 -0.66,0 -1.32,0 -2,0 0,0.99 0,1.98 0,3 -0.99,0.33 -1.98,0.66 -3,1 0.66,-1.65 1.32,-3.3 2,-5 0.66,0 1.32,0 2,0 0.30937,-0.80438 0.61875,-1.60875 0.9375,-2.4375 C 344,369 344,369 345,368 Z"
     fill="#b1dda6"
     id="path19" />
  <path
     d="m 641,665 c -4.33665,3.11697 -7.80408,3.55967 -13,4 0.66,-0.66 1.32,-1.32 2,-2 1.32,0 2.64,0 4,0 0,-0.66 0,-1.32 0,-2 4.75,-1.125 4.75,-1.125 7,0 z"
     fill="#addba0"
     id="path20" />
  <path
     d="m 374,378 c 0.33,0.99 0.66,1.98 1,3 -2.97,2.475 -2.97,2.475 -6,5 -0.66,-0.33 -1.32,-0.66 -2,-1 2.31,-2.31 4.62,-4.62 7,-7 z"
     fill="#7bc566"
     id="path21" />
  <path
     d="m 390,493 c 1.482,0.44909 2.96055,0.90957 4.4375,1.375 0.82371,0.25523 1.64742,0.51047 2.49609,0.77344 C 399,496 399,496 400,498 c -2.31,-0.33 -4.62,-0.66 -7,-1 0,-0.66 0,-1.32 0,-2 -0.99,-0.33 -1.98,-0.66 -3,-1 0,-0.33 0,-0.66 0,-1 z"
     fill="#a1d693"
     id="path22" />
</svg>
